<svg width="140" height="140" viewBox="0 0 140 140" fill="none" xmlns="http://www.w3.org/2000/svg">
<g filter="url(#filter0_d_747_87)">
<circle cx="65" cy="65" r="40" fill="#76ABAE"/>
</g>
<path d="M65.2 40C51.3047 40 40 51.3047 40 65.2V66.9993V75.28V75.6404C40 78.2208 42.2604 80.32 45.04 80.32H47.56C48.9536 80.32 50.08 79.191 50.08 77.8V64.8396C50.08 63.4486 48.9536 62.3196 47.56 62.3196H45.2718C46.673 52.5672 55.0646 45.04 65.2 45.04C75.3354 45.04 83.727 52.5672 85.1282 62.3196H82.84C81.4464 62.3196 80.32 63.4486 80.32 64.8396V75.28V77.8V80.32C80.32 83.0996 78.0596 85.36 75.28 85.36H70.24V82.84H60.16V90.4H65.2H70.24H75.28C80.8391 90.4 85.36 85.8791 85.36 80.32C88.1396 80.32 90.4 78.2208 90.4 75.6404V75.28V66.9993V65.2C90.4 51.3047 79.0953 40 65.2 40Z" fill="white"/>
<defs>
<filter id="filter0_d_747_87" x="0" y="0" width="140" height="140" filterUnits="userSpaceOnUse" color-interpolation-filters="sRGB">
<feFlood flood-opacity="0" result="BackgroundImageFix"/>
<feColorMatrix in="SourceAlpha" type="matrix" values="0 0 0 0 0 0 0 0 0 0 0 0 0 0 0 0 0 0 127 0" result="hardAlpha"/>
<feMorphology radius="5" operator="dilate" in="SourceAlpha" result="effect1_dropShadow_747_87"/>
<feOffset dx="5" dy="5"/>
<feGaussianBlur stdDeviation="12.5"/>
<feComposite in2="hardAlpha" operator="out"/>
<feColorMatrix type="matrix" values="0 0 0 0 0 0 0 0 0 0 0 0 0 0 0 0 0 0 0.08 0"/>
<feBlend mode="normal" in2="BackgroundImageFix" result="effect1_dropShadow_747_87"/>
<feBlend mode="normal" in="SourceGraphic" in2="effect1_dropShadow_747_87" result="shape"/>
</filter>
</defs>
</svg>
