<svg width="20" height="20" viewBox="0 0 20 20" fill="none" xmlns="http://www.w3.org/2000/svg">
<path d="M19.4443 9.96654C18.8501 9.35655 18.7177 8.4298 19.1168 7.67529C19.4018 7.13756 19.4218 6.49816 19.1701 5.94279C18.9193 5.38825 18.426 4.98327 17.836 4.84884C17.0103 4.65979 16.4011 3.95233 16.3336 3.10036C16.2845 2.49289 15.9578 1.94256 15.4487 1.6132C14.9412 1.283 14.3096 1.21158 13.7405 1.42079C12.9438 1.71234 12.0522 1.44768 11.5389 0.76879C11.1723 0.28483 10.6023 0 9.99736 0C9.39323 0 8.82327 0.28483 8.45662 0.76879C7.94582 1.44852 7.05421 1.71318 6.25759 1.42163C5.6893 1.21326 5.05767 1.28468 4.54937 1.61404C4.04107 1.9434 3.71359 2.49373 3.66526 3.1012C3.59693 3.95317 2.98863 4.66147 2.16285 4.84968C1.57289 4.98411 1.07958 5.38909 0.828765 5.94363C0.577948 6.49816 0.597947 7.1384 0.882929 7.67529C1.28207 8.42896 1.14958 9.35655 0.556282 9.96654C0.132142 10.4009 -0.0661788 11.0101 0.0196492 11.6133C0.105477 12.2166 0.466288 12.7451 0.994589 13.0417C1.73454 13.4576 2.12118 14.3104 1.94786 15.1464C1.82537 15.743 1.98453 16.363 2.38034 16.8235C2.77698 17.2847 3.36361 17.5326 3.96524 17.494C4.81185 17.441 5.59264 17.9477 5.89595 18.745C6.11177 19.3147 6.57924 19.7491 7.16004 19.9205C7.73917 20.0919 8.3658 19.981 8.85243 19.6205C9.53489 19.1139 10.4657 19.1139 11.1473 19.6205C11.6339 19.9818 12.2606 20.0927 12.8397 19.9205C13.4205 19.7491 13.888 19.3138 14.1046 18.745C14.4071 17.9477 15.1887 17.4402 16.0345 17.494C16.6378 17.5326 17.2236 17.2847 17.6194 16.8235C18.0152 16.363 18.1752 15.743 18.0519 15.1464C17.8794 14.3104 18.2652 13.4576 19.006 13.0417C19.5334 12.7443 19.8934 12.2166 19.9801 11.6133C20.0667 11.0101 19.8676 10.4009 19.4443 9.96654ZM8.95826 14.5289L5.20849 10.8622L6.7559 9.30193L8.95826 11.4075L13.6605 6.54773L15.2079 8.108L8.95826 14.5289Z" fill="white"/>
</svg>
