<svg width="13" height="12" viewBox="0 0 13 12" fill="none" xmlns="http://www.w3.org/2000/svg">
<path d="M3.375 11.9212H9.625V3.30711H9V2.38417C9 1.97621 8.83538 1.58496 8.54235 1.29648C8.24933 1.00801 7.8519 0.845947 7.4375 0.845947H5.5625C5.1481 0.845947 4.75067 1.00801 4.45765 1.29648C4.16462 1.58496 4 1.97621 4 2.38417V3.30711H3.375V11.9212ZM5.25 2.38417C5.25 2.30258 5.28292 2.22433 5.34153 2.16664C5.40013 2.10894 5.47962 2.07653 5.5625 2.07653H7.4375C7.52038 2.07653 7.59987 2.10894 7.65847 2.16664C7.71708 2.22433 7.75 2.30258 7.75 2.38417V3.30711H5.25V2.38417Z" fill="#828282"/>
<path d="M10.875 3.30713V11.9212C11.3723 11.9212 11.8492 11.7267 12.2008 11.3806C12.5525 11.0344 12.75 10.5649 12.75 10.0753V5.153C12.75 4.66345 12.5525 4.19394 12.2008 3.84777C11.8492 3.5016 11.3723 3.30713 10.875 3.30713Z" fill="#828282"/>
<path d="M2.125 3.30713C1.62772 3.30713 1.15081 3.5016 0.799175 3.84777C0.447544 4.19394 0.25 4.66345 0.25 5.153V10.0753C0.25 10.5649 0.447544 11.0344 0.799175 11.3806C1.15081 11.7267 1.62772 11.9212 2.125 11.9212V3.30713Z" fill="#828282"/>
</svg>
