<svg width="20" height="20" viewBox="0 0 20 20" fill="none" xmlns="http://www.w3.org/2000/svg">
<path d="M4.44434 9H6.66656V11H4.44434V9ZM4.44434 13H6.66656V15H4.44434V13ZM8.88878 9H11.111V11H8.88878V9ZM8.88878 13H11.111V15H8.88878V13ZM13.3332 9H15.5554V11H13.3332V9ZM13.3332 13H15.5554V15H13.3332V13Z" fill="white"/>
<path d="M2.22222 20H17.7778C19.0033 20 20 19.103 20 18V4C20 2.897 19.0033 2 17.7778 2H15.5556V0H13.3333V2H6.66667V0H4.44444V2H2.22222C0.996667 2 0 2.897 0 4V18C0 19.103 0.996667 20 2.22222 20ZM17.7778 6L17.7789 18H2.22222V6H17.7778Z" fill="white"/>
</svg>
