<svg width="10" height="10" viewBox="0 0 10 10" fill="none" xmlns="http://www.w3.org/2000/svg">
<path d="M1 9.8449H1.5V3.10908H1C0.734784 3.10908 0.48043 3.21826 0.292893 3.4126C0.105357 3.60694 0 3.87052 0 4.14536V8.80862C0 9.08345 0.105357 9.34704 0.292893 9.54138C0.48043 9.73572 0.734784 9.8449 1 9.8449ZM9 3.10908H5.5L6.061 1.36399C6.11106 1.20824 6.12469 1.0424 6.10079 0.880125C6.07688 0.717849 6.01611 0.56378 5.92349 0.430608C5.83087 0.297436 5.70904 0.188972 5.56804 0.11415C5.42704 0.0393271 5.27091 0.000286687 5.1125 0.000244141H5L2.5 2.81789V9.8449H8L9.956 5.39097L10 5.18164V4.14536C10 3.87052 9.89464 3.60694 9.70711 3.4126C9.51957 3.21826 9.26522 3.10908 9 3.10908Z" fill="#828282"/>
</svg>
